<?xml version="1.0" encoding="UTF-8"?>
<svg id="Layer_1" xmlns="http://www.w3.org/2000/svg" version="1.1" viewBox="0 0 1771.61 317.97">
  <!-- Generator: Adobe Illustrator 29.7.1, SVG Export Plug-In . SVG Version: 2.1.1 Build 8)  -->
  <defs>
    <style>
      .st0 {
        fill: #fff;
      }
    </style>
  </defs>
  <path class="st0" d="M1163.12,0h-565.27v68.84h391.17c2.12,0,2.74,2.89.81,3.76l-391.97,176.52v68.84h565.27v-68.84h-386.13c-2.11,0-2.74-2.88-.82-3.75l386.95-176.53V0Z"/>
  <path class="st0" d="M492.91,0H72.36C32.4,0,0,32.4,0,72.36v173.23c0,39.97,32.4,72.36,72.36,72.36h420.55c39.97,0,72.36-32.4,72.36-72.36V72.36c0-39.97-32.4-72.36-72.36-72.36ZM494.47,247.56c0,.81-.66,1.47-1.47,1.47H72.28c-.81,0-1.47-.66-1.47-1.47V70.31c0-.81.66-1.47,1.47-1.47h420.71c.81,0,1.47.66,1.47,1.47v177.24Z"/>
  <path class="st0" d="M1700.8,0v247.57c0,.81-.66,1.47-1.47,1.47h-420.71c-.81,0-1.47-.66-1.47-1.47V0h-70.81v245.6c0,39.97,32.4,72.36,72.36,72.36h420.55c39.97,0,72.36-32.4,72.36-72.36V0h-70.81Z"/>
</svg>